<svg width="20" height="20" viewBox="0 0 20 20" fill="none" xmlns="http://www.w3.org/2000/svg">
<circle cx="10" cy="10" r="10" fill="#F7931A"/>
<path fill-rule="evenodd" clip-rule="evenodd" d="M14.1418 8.69326C14.3499 7.29224 13.2909 6.53909 11.8429 6.03666L12.3126 4.13881L11.1657 3.8509L10.7084 5.69874C10.4069 5.62307 10.0973 5.55167 9.78958 5.48092L10.2502 3.62091L9.10394 3.33301L8.6339 5.2302C8.38434 5.17295 8.13935 5.11636 7.90155 5.0568L7.90286 5.05088L6.32123 4.65308L6.01614 5.88695C6.01614 5.88695 6.86706 6.08338 6.84909 6.09555C7.31359 6.21236 7.39754 6.52198 7.38349 6.76744L6.84844 8.9295C6.88045 8.93773 6.92194 8.94957 6.96767 8.968L6.92879 8.95822C6.9022 8.9515 6.87463 8.94454 6.84648 8.93773L6.0965 11.9665C6.03966 12.1086 5.89561 12.3218 5.57092 12.2409C5.58235 12.2577 4.73732 12.0313 4.73732 12.0313L4.16797 13.3537L5.66042 13.7284C5.82709 13.7705 5.99177 13.8137 6.15472 13.8566L6.15524 13.8567C6.26356 13.8851 6.37113 13.9134 6.47802 13.941L6.0034 15.8605L7.14896 16.1484L7.619 14.2493C7.93193 14.3348 8.23571 14.4138 8.53296 14.4882L8.06455 16.3784L9.21141 16.6663L9.68603 14.7504C11.6417 15.1232 13.1122 14.9728 13.7312 13.1911C14.23 11.7565 13.7064 10.929 12.6775 10.3894C13.4268 10.2154 13.9912 9.71885 14.1418 8.69326ZM11.5214 12.3944C11.1963 13.7106 9.15106 13.1665 8.21527 12.9175C8.13107 12.8951 8.05585 12.8751 7.99168 12.859L8.62146 10.316C8.6996 10.3356 8.79507 10.3572 8.90322 10.3816C9.8711 10.6004 11.8546 11.0487 11.5214 12.3944ZM9.09769 9.20146C9.8779 9.41119 11.5797 9.86868 11.8762 8.67245C12.1789 7.44888 10.5248 7.08004 9.71704 6.89991C9.62617 6.87965 9.54601 6.86177 9.48055 6.84534L8.90957 9.15185C8.9635 9.16539 9.02679 9.1824 9.09769 9.20146Z" fill="white"/>
</svg>
