<svg width="22" height="23" viewBox="0 0 22 23" fill="none" xmlns="http://www.w3.org/2000/svg">
<path d="M8 11.9756L10 13.9756L14.5 9.47559M16.9012 4.97409C17.1071 5.47212 17.5024 5.86798 18.0001 6.07466L19.7452 6.79756C20.2433 7.00387 20.639 7.39958 20.8453 7.89764C21.0516 8.39571 21.0516 8.95533 20.8453 9.45339L20.1229 11.1974C19.9165 11.6957 19.9162 12.2559 20.1236 12.7539L20.8447 14.4974C20.9469 14.7441 20.9996 15.0085 20.9996 15.2755C20.9997 15.5426 20.9471 15.807 20.8449 16.0537C20.7427 16.3005 20.5929 16.5246 20.4041 16.7134C20.2152 16.9022 19.991 17.0519 19.7443 17.1541L18.0004 17.8765C17.5023 18.0824 17.1065 18.4776 16.8998 18.9754L16.1769 20.7206C15.9706 21.2187 15.575 21.6144 15.0769 21.8207C14.5789 22.027 14.0193 22.027 13.5212 21.8207L11.7773 21.0983C11.2792 20.8925 10.7198 20.8929 10.2221 21.0995L8.47689 21.8213C7.97912 22.0272 7.42001 22.027 6.92237 21.8209C6.42473 21.6147 6.02925 21.2195 5.82281 20.7219L5.09972 18.9762C4.8938 18.4782 4.49854 18.0823 4.00085 17.8756L2.25566 17.1527C1.75783 16.9465 1.36226 16.551 1.15588 16.0533C0.949508 15.5555 0.949228 14.9961 1.1551 14.4981L1.87746 12.7541C2.08325 12.2561 2.08283 11.6966 1.8763 11.1989L1.15497 9.45237C1.0527 9.20568 1.00004 8.94126 1 8.67422C0.999957 8.40717 1.05253 8.14274 1.15472 7.89602C1.25691 7.6493 1.40671 7.42514 1.59557 7.23634C1.78442 7.04754 2.00862 6.8978 2.25537 6.79569L3.9993 6.0733C4.49687 5.86756 4.89248 5.47279 5.0993 4.97564L5.82218 3.2304C6.02848 2.73233 6.42418 2.33662 6.92222 2.13031C7.42027 1.92401 7.97987 1.92401 8.47792 2.13031L10.2218 2.8527C10.7199 3.0585 11.2793 3.05808 11.7771 2.85153L13.523 2.13144C14.021 1.92525 14.5804 1.92529 15.0784 2.13155C15.5763 2.33782 15.972 2.73341 16.1783 3.23135L16.9014 4.97712L16.9012 4.97409Z" stroke="#9896A1" stroke-width="2" stroke-linecap="round" stroke-linejoin="round"/>
</svg>
