<svg width="20" height="20" viewBox="0 0 20 20" fill="none" xmlns="http://www.w3.org/2000/svg">
<path d="M15.1163 13.3338C14.8456 13.6398 14.5615 13.9421 14.2645 14.2391C9.96873 18.5349 4.58683 20.1178 2.24368 17.7746C0.637277 16.1682 0.876175 13.1336 2.56944 9.99982M4.89065 6.70084C5.17236 6.38053 5.4687 6.06434 5.77921 5.75382C10.075 1.45806 15.4569 -0.124856 17.8 2.21829C19.4075 3.8258 19.1672 6.86353 17.4708 9.99958M14.2645 5.75382C18.5603 10.0496 20.1432 15.4315 17.8 17.7746C15.4569 20.1178 10.075 18.5349 5.77921 14.2391C1.48345 9.94334 -0.0994656 4.56143 2.24368 2.21829C4.58683 -0.124856 9.96873 1.45806 14.2645 5.75382ZM11.001 9.97558C11.001 10.5279 10.5533 10.9756 10.001 10.9756C9.44875 10.9756 9.00104 10.5279 9.00104 9.97558C9.00104 9.42329 9.44875 8.97558 10.001 8.97558C10.5533 8.97558 11.001 9.42329 11.001 9.97558Z" stroke="#9896A1" stroke-width="2" stroke-linecap="round" stroke-linejoin="round"/>
</svg>
