<svg width="20" height="20" viewBox="0 0 20 20" fill="none" xmlns="http://www.w3.org/2000/svg">
<circle cx="10" cy="10" r="10" fill="#0033AD"/>
<path d="M6.98683 9.95274C6.95837 10.4556 7.33684 10.8869 7.83249 10.9162H7.88154C8.37047 10.9157 8.76905 10.5182 8.77805 10.0222C8.78705 9.52626 8.40315 9.11419 7.91457 9.09539C7.42598 9.07659 7.01243 9.45798 6.98438 9.95323L6.98683 9.95274Z" fill="white"/>
<path d="M3.63814 9.72215C3.47834 9.71307 3.34153 9.83711 3.3325 9.99923C3.32348 10.1614 3.44565 10.3002 3.60544 10.3095C3.76523 10.3187 3.90217 10.1948 3.91136 10.0327C3.91591 9.95471 3.88964 9.8781 3.83836 9.81981C3.78708 9.76153 3.71503 9.72638 3.63814 9.72215Z" fill="white"/>
<path d="M6.92701 4.66713C7.06931 4.59299 7.12571 4.41606 7.05316 4.27141C6.98061 4.12677 6.80643 4.06889 6.6636 4.14197C6.52078 4.21505 6.46309 4.39156 6.53459 4.53674C6.56937 4.60704 6.63036 4.66035 6.70404 4.68483C6.77772 4.70932 6.85798 4.70294 6.92701 4.66713Z" fill="white"/>
<path d="M7.83786 6.27908C8.05889 6.16595 8.14772 5.89247 8.03627 5.66818C7.92483 5.44389 7.6553 5.3537 7.43421 5.46671C7.21312 5.57973 7.12416 5.85317 7.2355 6.07752C7.289 6.18532 7.38253 6.26713 7.49551 6.30494C7.60849 6.34274 7.73164 6.33344 7.83786 6.27908Z" fill="white"/>
<path d="M4.77583 7.3871C4.90069 7.47041 5.06273 7.46917 5.18634 7.38397C5.30996 7.29877 5.37079 7.14639 5.34045 6.99792C5.31012 6.84946 5.1946 6.73416 5.04779 6.70583C4.90098 6.67751 4.75181 6.74172 4.66988 6.86852C4.55815 7.04144 4.60556 7.2735 4.77583 7.3871V7.3871Z" fill="white"/>
<path d="M5.32126 9.5564C5.07411 9.54225 4.86242 9.73401 4.84839 9.98477C4.83436 10.2355 5.02329 10.4504 5.27043 10.4647C5.51758 10.479 5.7294 10.2874 5.7436 10.0367C5.75755 9.78576 5.56854 9.57083 5.32126 9.5564V9.5564Z" fill="white"/>
<path d="M4.82393 12.6145C4.64191 12.7078 4.56889 12.9332 4.66083 13.1179C4.75277 13.3026 4.97486 13.3768 5.15694 13.2835C5.33902 13.1903 5.41217 12.965 5.32034 12.7802C5.2762 12.6914 5.19909 12.6241 5.10599 12.593C5.01288 12.5619 4.91141 12.5697 4.82393 12.6145V12.6145Z" fill="white"/>
<path d="M6.56681 8.61626C6.8106 8.77836 7.13775 8.70927 7.29754 8.46194C7.45733 8.21461 7.38926 7.88269 7.1455 7.72054C6.90175 7.5584 6.57459 7.62742 6.41475 7.87472C6.33784 7.99347 6.31066 8.13838 6.33918 8.27749C6.36771 8.41661 6.44961 8.53849 6.56681 8.61626V8.61626Z" fill="white"/>
<path d="M12.0944 6.24309C12.302 6.38046 12.58 6.32114 12.7155 6.11059C12.8509 5.90003 12.7926 5.61793 12.5851 5.48043C12.3776 5.34292 12.0995 5.40206 11.964 5.61253C11.8987 5.71364 11.8757 5.83697 11.9002 5.95528C11.9247 6.07359 11.9946 6.17715 12.0944 6.24309V6.24309Z" fill="white"/>
<path d="M13.014 4.63675C13.1123 4.7021 13.2397 4.70093 13.3368 4.63381C13.4339 4.56668 13.4815 4.44681 13.4575 4.33012C13.4335 4.21344 13.3425 4.12293 13.2271 4.10083C13.1116 4.07872 12.9944 4.12937 12.9302 4.22915C12.8425 4.36523 12.88 4.54763 13.014 4.63675V4.63675Z" fill="white"/>
<path d="M12.1643 9.08551C11.6692 9.05665 11.2448 9.44046 11.2163 9.94276C11.1879 10.4451 11.5662 10.8757 12.0613 10.9045C12.0784 10.9045 12.0961 10.9045 12.1133 10.9045C12.4671 10.9044 12.7878 10.6933 12.9322 10.3657C13.0767 10.038 13.018 9.65483 12.7823 9.3871C12.6245 9.20655 12.4018 9.09788 12.1643 9.08551Z" fill="white"/>
<path d="M8.13417 8.55275C8.28617 8.86086 8.59707 9.05502 8.93666 9.05392C9.24877 9.05399 9.53853 8.88966 9.70199 8.61989C9.86544 8.35013 9.87914 8.01361 9.73817 7.73109C9.58512 7.42442 9.27447 7.23177 8.93568 7.23341C8.62456 7.23395 8.33588 7.39781 8.17263 7.66652C8.00939 7.93523 7.99483 8.27052 8.13417 8.55275V8.55275Z" fill="white"/>
<path d="M15.1726 7.38616C15.3546 7.29294 15.4278 7.06768 15.336 6.88292C15.2442 6.69816 15.0222 6.62383 14.8401 6.71686C14.6579 6.80989 14.5846 7.03508 14.6762 7.21993C14.7681 7.40481 14.9902 7.4792 15.1726 7.38616V7.38616Z" fill="white"/>
<path d="M12.896 7.67655C12.6356 7.80958 12.5309 8.13155 12.662 8.39569C12.7931 8.65983 13.1105 8.76612 13.3708 8.63308C13.6311 8.50005 13.7359 8.17808 13.6048 7.91394C13.5419 7.787 13.4319 7.69064 13.2989 7.64611C13.1659 7.60157 13.021 7.61252 12.896 7.67655Z" fill="white"/>
<path d="M9.96556 4.49891C10.1147 4.50753 10.2543 4.42411 10.3192 4.28757C10.3842 4.15102 10.3616 3.98824 10.2621 3.87516C10.1625 3.76208 10.0057 3.72098 9.86464 3.77102C9.72359 3.82106 9.62616 3.95239 9.61778 4.10376C9.60635 4.31028 9.76201 4.48715 9.96556 4.49891Z" fill="white"/>
<path d="M9.95918 6.85729C10.2501 6.87384 10.4992 6.64803 10.5157 6.35284C10.5321 6.05766 10.3097 5.80481 10.0187 5.78799C9.72782 5.77118 9.4785 5.99676 9.46179 6.29193C9.44534 6.58737 9.66799 6.84045 9.95918 6.85729Z" fill="white"/>
<path d="M7.10135 12.3242C7.29199 12.2267 7.40595 12.0223 7.39009 11.8063C7.37422 11.5903 7.23166 11.4052 7.02888 11.3375C6.8261 11.2697 6.60306 11.3325 6.46376 11.4967C6.32447 11.6608 6.29636 11.894 6.39255 12.0873C6.52385 12.3513 6.84114 12.4573 7.10135 12.3242Z" fill="white"/>
<path d="M10.3031 7.63912C10.0779 7.98781 10.1148 8.44713 10.3927 8.75423C10.6706 9.06132 11.1185 9.13778 11.4801 8.93984C11.8417 8.74191 12.0247 8.32013 11.9244 7.91586C11.824 7.5116 11.466 7.22807 11.0551 7.22754C10.752 7.22733 10.4693 7.38207 10.3031 7.63912V7.63912Z" fill="white"/>
<path d="M11.8633 11.4471C11.6643 11.0467 11.2075 10.8528 10.7868 10.9902C10.366 11.1276 10.1065 11.5553 10.175 11.9984C10.2435 12.4414 10.6198 12.7679 11.0618 12.7679C11.2023 12.7669 11.3407 12.7329 11.466 12.6684C11.9073 12.4417 12.0849 11.8957 11.8633 11.4471V11.4471Z" fill="white"/>
<path d="M13.4308 11.3838C13.1871 11.2215 12.8599 11.2903 12.6999 11.5376C12.54 11.7848 12.6078 12.1168 12.8515 12.2791C13.0952 12.4414 13.4224 12.3726 13.5824 12.1253C13.7418 11.878 13.674 11.5464 13.4308 11.3838Z" fill="white"/>
<path d="M15.1499 10.0157C15.1638 9.76491 14.9748 9.55014 14.7277 9.5359C14.4805 9.52166 14.2688 9.71335 14.2546 9.9641C14.2405 10.2149 14.4294 10.4298 14.6765 10.4442C14.9238 10.4583 15.1357 10.2666 15.1499 10.0157Z" fill="white"/>
<path d="M16.393 9.6919C16.2758 9.68505 16.166 9.75054 16.1149 9.85783C16.0638 9.96513 16.0814 10.0931 16.1595 10.1821C16.2377 10.271 16.361 10.3035 16.4719 10.2643C16.5828 10.2251 16.6595 10.1219 16.6662 10.0029C16.6752 9.8406 16.553 9.70151 16.393 9.6919V9.6919Z" fill="white"/>
<path d="M15.2241 12.6131C15.0535 12.4997 14.8246 12.5481 14.7128 12.7211C14.601 12.8942 14.6486 13.1265 14.8192 13.2399C14.9898 13.3534 15.2187 13.3051 15.3306 13.1321C15.3843 13.049 15.4033 12.9476 15.3834 12.8502C15.3634 12.7529 15.3061 12.6675 15.2241 12.6131V12.6131Z" fill="white"/>
<path d="M6.98098 15.3638C6.84691 15.2745 6.66691 15.3124 6.57891 15.4484C6.49091 15.5844 6.52823 15.7671 6.66227 15.8564C6.79631 15.9457 6.97633 15.9078 7.06437 15.7719C7.10667 15.7065 7.12165 15.6268 7.10601 15.5503C7.09037 15.4737 7.0454 15.4066 6.98098 15.3638V15.3638Z" fill="white"/>
<path d="M13.0659 15.3325C12.9611 15.3861 12.8983 15.4986 12.9071 15.6174C12.9158 15.7363 12.9942 15.8381 13.1058 15.8754C13.2173 15.9127 13.34 15.8781 13.4167 15.7878C13.4933 15.6975 13.5088 15.5693 13.4559 15.4629C13.4213 15.393 13.3608 15.34 13.2876 15.3156C13.2144 15.2911 13.1347 15.2972 13.0659 15.3325Z" fill="white"/>
<path d="M9.69543 12.3602C9.92066 12.0114 9.88373 11.552 9.60577 11.245C9.32781 10.9379 8.87982 10.8615 8.51821 11.0595C8.15659 11.2576 7.97371 11.6795 8.07423 12.0838C8.17475 12.488 8.53301 12.7714 8.94395 12.7717C9.24705 12.7728 9.52999 12.6178 9.69543 12.3602Z" fill="white"/>
<path d="M7.90086 13.7579C7.6937 13.6204 7.41591 13.6792 7.28032 13.8894C7.14472 14.0995 7.20266 14.3814 7.40973 14.519C7.6168 14.6567 7.89463 14.598 8.03036 14.3879C8.16593 14.1776 8.10797 13.8957 7.90086 13.7579V13.7579Z" fill="white"/>
<path d="M9.99582 15.5006C9.79218 15.4889 9.6177 15.6468 9.60608 15.8534C9.59446 16.06 9.75009 16.2371 9.95372 16.2489C10.1573 16.2607 10.3319 16.1029 10.3436 15.8963C10.3492 15.797 10.3157 15.6995 10.2505 15.6253C10.1853 15.5511 10.0937 15.5063 9.99582 15.5006Z" fill="white"/>
<path d="M9.99733 13.1436C9.78405 13.1304 9.584 13.249 9.4906 13.444C9.39721 13.639 9.42888 13.8719 9.57085 14.0339C9.71281 14.1959 9.93704 14.2551 10.1388 14.1838C10.3406 14.1125 10.4802 13.9249 10.4923 13.7084C10.509 13.4139 10.2876 13.1612 9.99733 13.1436Z" fill="white"/>
<path d="M12.1559 13.7215C11.9939 13.8049 11.8975 13.9791 11.9115 14.1628C11.9256 14.3466 12.0474 14.5036 12.2201 14.5606C12.3928 14.6176 12.5824 14.5634 12.7003 14.4233C12.8183 14.2832 12.8413 14.0847 12.7588 13.9206C12.7049 13.813 12.6111 13.7315 12.498 13.6942C12.3849 13.6568 12.2618 13.6667 12.1559 13.7215V13.7215Z" fill="white"/>
</svg>
