<svg width="18" height="15" viewBox="0 0 18 15" fill="none" xmlns="http://www.w3.org/2000/svg">
<path d="M5.48002 2.60052C6.41353 1.66702 7.67963 1.14258 8.99981 1.14258C10.32 1.14258 11.5861 1.66702 12.5196 2.60052C13.4531 3.53403 13.9775 4.80014 13.9775 6.12032C13.9775 7.25842 14.1787 8.15315 14.4761 8.85258C14.7745 9.55428 15.5958 9.79366 16.2086 10.2474C17.1234 10.9246 16.9466 12.3736 16.1857 12.9362C16.1857 12.9362 14.9572 13.9997 8.99981 13.9997C3.04241 13.9997 1.81394 12.9362 1.81394 12.9362C1.05307 12.3736 0.876215 10.9246 1.79097 10.2474C2.40381 9.79366 3.22512 9.55428 3.5235 8.85258C3.82091 8.15315 4.02207 7.25842 4.02207 6.12032C4.02207 4.80014 4.54651 3.53403 5.48002 2.60052Z" stroke="#9896A1" stroke-width="2" stroke-linecap="round" stroke-linejoin="round"/>
</svg>
