<svg width="20" height="21" viewBox="0 0 20 21" fill="none" xmlns="http://www.w3.org/2000/svg">
<path d="M14 6.9759V3.47656C14 2.64482 14 2.22895 13.8248 1.97338C13.6717 1.75008 13.4346 1.5984 13.1678 1.55298C12.8623 1.501 12.4847 1.67527 11.7295 2.02382L2.85901 6.11789C2.18551 6.42874 1.84875 6.58417 1.60211 6.82522C1.38406 7.03832 1.21762 7.29845 1.1155 7.58573C1 7.91069 1 8.28158 1 9.02337V13.9759M14.5 13.4759H14.51M1 10.1759L1 16.7759C1 17.896 1 18.4561 1.21799 18.8839C1.40973 19.2602 1.71569 19.5662 2.09202 19.7579C2.51984 19.9759 3.07989 19.9759 4.2 19.9759H15.8C16.9201 19.9759 17.4802 19.9759 17.908 19.7579C18.2843 19.5662 18.5903 19.2602 18.782 18.8839C19 18.4561 19 17.896 19 16.7759V10.1759C19 9.0558 19 8.49575 18.782 8.06792C18.5903 7.6916 18.2843 7.38564 17.908 7.19389C17.4802 6.9759 16.9201 6.9759 15.8 6.9759L4.2 6.9759C3.0799 6.9759 2.51984 6.9759 2.09202 7.19389C1.7157 7.38564 1.40973 7.6916 1.21799 8.06792C1 8.49574 1 9.0558 1 10.1759ZM15 13.4759C15 13.752 14.7761 13.9759 14.5 13.9759C14.2239 13.9759 14 13.752 14 13.4759C14 13.1998 14.2239 12.9759 14.5 12.9759C14.7761 12.9759 15 13.1998 15 13.4759Z" stroke="#9896A1" stroke-width="2" stroke-linecap="round" stroke-linejoin="round"/>
</svg>
